<?xml version="1.0" encoding="utf-8"?>
<!-- Generator: Adobe Illustrator 27.0.0, SVG Export Plug-In . SVG Version: 6.00 Build 0)  -->
<svg version="1.1" id="Calque_1" xmlns="http://www.w3.org/2000/svg" xmlns:xlink="http://www.w3.org/1999/xlink" x="0px" y="0px"
	 viewBox="0 0 40.2 40.3" style="enable-background:new 0 0 40.2 40.3;" xml:space="preserve">
<style type="text/css">
	.st0{fill:#60A2D8;}
</style>
<g id="Calque_2_00000032624148479389926800000010930695306956875650_">
	<g id="FavIconBleu">
		<g id="_7LSTd7">
			<path class="st0" d="M37,20.3c-0.1,4.6-2,9-5.4,12.1c-3.3,3.2-7.8,4.8-12.4,4.5c-7.9-0.3-14.4-6.3-15.6-14.6
				C3,18.6,3.8,14.8,5.8,11.6c2.9-4.9,8-8,13.7-8.2V0C8.3,0.4-0.3,9.8,0.1,20.9S9.9,40.8,21,40.3c0.6,0,1.3-0.1,1.9-0.2
				c11.9-1.6,17.8-12.3,17.3-19.9L37,20.3z M19.5,7c-0.3,0-0.5,0-0.8,0C11.5,7.8,6.2,14.3,7,21.5S14.3,34,21.5,33.2
				c6.6-0.7,11.6-6.2,11.8-12.8c0.1-6.5,0-13,0-19.4c0-0.3,0-0.6-0.1-1h-3.2v1.3c0,6,0,12,0,18c0,0.8-0.1,1.6-0.2,2.4
				c-0.8,5.4-5.9,9-11.3,8.2s-9-5.9-8.2-11.3c0.2-1.2,0.6-2.3,1.2-3.4c1.6-2.9,4.6-4.7,7.9-5V7z M23.2,0v1.7c0,5.8,0,11.6,0,17.5
				c0,0.5,0,1.1-0.1,1.6c-0.2,1.3-1.3,2.3-2.6,2.4c-1.3,0.1-2.6-0.6-3.1-1.9c-0.1-0.3-0.2-0.7-0.3-1h-3.1c0,0.5,0.1,1,0.2,1.5
				c0.8,3,3.7,5,6.8,4.6c3.1-0.3,5.6-2.9,5.6-6.1c0-6.5,0-13,0-19.4c0-0.3,0-0.6-0.1-0.9L23.2,0z"/>
			<path class="st0" d="M37,20.3h3.2c0.5,7.6-5.5,18.3-17.3,19.9c-11,1.5-21.2-6.3-22.7-17.4S6.6,1.6,17.6,0.2
				C18.2,0.1,18.9,0,19.5,0v3.4C13.8,3.6,8.7,6.7,5.8,11.6c-2,3.2-2.8,7-2.2,10.7c1.2,8.3,7.8,14.3,15.6,14.6
				c4.6,0.3,9.1-1.3,12.4-4.5C35,29.2,36.9,24.9,37,20.3z"/>
			<path class="st0" d="M19.5,7v3.2c-3.3,0.3-6.2,2.1-7.9,5c-2,3.4-1.7,7.7,0.7,10.8c3.2,4.4,9.4,5.3,13.7,2
				c2.1-1.5,3.5-3.8,3.9-6.4c0.1-0.8,0.2-1.6,0.2-2.4c0-6,0-12,0-18V0h3.2c0,0.3,0.1,0.7,0.1,1c0,6.5,0,13,0,19.4
				c-0.1,7.2-6,13-13.2,12.9c-0.1,0-0.3,0-0.4,0c-7.3-0.3-13-6.4-12.7-13.7C7.3,13.1,12.3,7.8,18.7,7C19,7,19.2,7,19.5,7z"/>
			<path class="st0" d="M23.2,0h3.2c0,0.3,0.1,0.6,0.1,0.9c0,6.5,0,13,0,19.4c0,3.2-2.5,5.8-5.6,6.1c-3.1,0.4-6-1.6-6.8-4.6
				c-0.1-0.5-0.1-1-0.2-1.5H17c0.1,0.3,0.2,0.6,0.3,1c0.5,1.3,1.8,2,3.1,1.9c1.3-0.1,2.4-1.1,2.6-2.4c0.1-0.5,0.1-1.1,0.1-1.6
				c0-5.8,0-11.6,0-17.5L23.2,0z"/>
		</g>
	</g>
</g>
</svg>
